<mxfile host="app.diagrams.net" agent="Mozilla/5.0 (X11; Linux x86_64) AppleWebKit/537.36 (KHTML, like Gecko) Chrome/133.0.0.0 Safari/537.36" version="26.1.1">
  <diagram name="第 1 页" id="KX50qXrKCavaSVhrVp2w">
    <mxGraphModel dx="864" dy="436" grid="1" gridSize="10" guides="1" tooltips="1" connect="1" arrows="1" fold="1" page="1" pageScale="1" pageWidth="827" pageHeight="1169" math="0" shadow="0">
      <root>
        <mxCell id="0" />
        <mxCell id="1" parent="0" />
        <mxCell id="3f3bSYICgWdEO464dU50-2" value="" style="rounded=0;whiteSpace=wrap;html=1;" parent="1" vertex="1">
          <mxGeometry x="110" y="180" width="370" height="292.5" as="geometry" />
        </mxCell>
        <mxCell id="gjkn7aUXX005Zeepqe3c-24" value="" style="group" vertex="1" connectable="0" parent="1">
          <mxGeometry x="10" y="260" width="80" height="75" as="geometry" />
        </mxCell>
        <mxCell id="3f3bSYICgWdEO464dU50-5" value="" style="shape=umlActor;verticalLabelPosition=bottom;verticalAlign=top;html=1;container=0;" parent="gjkn7aUXX005Zeepqe3c-24" vertex="1">
          <mxGeometry x="25" width="30" height="52.94117647058823" as="geometry" />
        </mxCell>
        <mxCell id="gjkn7aUXX005Zeepqe3c-8" value="&lt;div&gt;算法工程师&lt;/div&gt;" style="text;html=1;align=center;verticalAlign=middle;whiteSpace=wrap;rounded=0;container=0;" vertex="1" parent="gjkn7aUXX005Zeepqe3c-24">
          <mxGeometry y="52.94117647058823" width="80" height="22.058823529411764" as="geometry" />
        </mxCell>
        <mxCell id="gjkn7aUXX005Zeepqe3c-25" value="" style="group" vertex="1" connectable="0" parent="1">
          <mxGeometry x="10" y="372.5" width="80" height="75" as="geometry" />
        </mxCell>
        <mxCell id="gjkn7aUXX005Zeepqe3c-26" value="" style="shape=umlActor;verticalLabelPosition=bottom;verticalAlign=top;html=1;container=0;" vertex="1" parent="gjkn7aUXX005Zeepqe3c-25">
          <mxGeometry x="25" width="30" height="52.94117647058823" as="geometry" />
        </mxCell>
        <mxCell id="gjkn7aUXX005Zeepqe3c-27" value="&lt;div&gt;软件工程师&lt;/div&gt;" style="text;html=1;align=center;verticalAlign=middle;whiteSpace=wrap;rounded=0;container=0;" vertex="1" parent="gjkn7aUXX005Zeepqe3c-25">
          <mxGeometry y="52.94117647058823" width="80" height="22.058823529411764" as="geometry" />
        </mxCell>
        <mxCell id="gjkn7aUXX005Zeepqe3c-31" value="&lt;div&gt;模型训练&lt;/div&gt;" style="ellipse;whiteSpace=wrap;html=1;" vertex="1" parent="1">
          <mxGeometry x="140" y="260" width="90" height="40" as="geometry" />
        </mxCell>
        <mxCell id="gjkn7aUXX005Zeepqe3c-32" value="&lt;div&gt;管理数据集&lt;/div&gt;" style="ellipse;whiteSpace=wrap;html=1;" vertex="1" parent="1">
          <mxGeometry x="140" y="210" width="90" height="40" as="geometry" />
        </mxCell>
        <mxCell id="gjkn7aUXX005Zeepqe3c-33" value="" style="endArrow=classic;html=1;rounded=0;" edge="1" parent="1" target="gjkn7aUXX005Zeepqe3c-31">
          <mxGeometry width="50" height="50" relative="1" as="geometry">
            <mxPoint x="70" y="280" as="sourcePoint" />
            <mxPoint x="250" y="160" as="targetPoint" />
          </mxGeometry>
        </mxCell>
        <mxCell id="gjkn7aUXX005Zeepqe3c-34" value="" style="endArrow=classic;html=1;rounded=0;entryX=0;entryY=0.5;entryDx=0;entryDy=0;" edge="1" parent="1" target="gjkn7aUXX005Zeepqe3c-32">
          <mxGeometry width="50" height="50" relative="1" as="geometry">
            <mxPoint x="70" y="270" as="sourcePoint" />
            <mxPoint x="155" y="307" as="targetPoint" />
          </mxGeometry>
        </mxCell>
        <mxCell id="gjkn7aUXX005Zeepqe3c-37" value="模型部署" style="ellipse;whiteSpace=wrap;html=1;" vertex="1" parent="1">
          <mxGeometry x="140" y="360" width="90" height="40" as="geometry" />
        </mxCell>
        <mxCell id="gjkn7aUXX005Zeepqe3c-41" value="" style="group" vertex="1" connectable="0" parent="1">
          <mxGeometry x="485" y="264" width="80" height="75" as="geometry" />
        </mxCell>
        <mxCell id="gjkn7aUXX005Zeepqe3c-42" value="" style="shape=umlActor;verticalLabelPosition=bottom;verticalAlign=top;html=1;container=0;" vertex="1" parent="gjkn7aUXX005Zeepqe3c-41">
          <mxGeometry x="25" width="30" height="52.94117647058823" as="geometry" />
        </mxCell>
        <mxCell id="gjkn7aUXX005Zeepqe3c-43" value="&lt;div&gt;运维人员&lt;/div&gt;" style="text;html=1;align=center;verticalAlign=middle;whiteSpace=wrap;rounded=0;container=0;" vertex="1" parent="gjkn7aUXX005Zeepqe3c-41">
          <mxGeometry y="52.94117647058823" width="80" height="22.058823529411764" as="geometry" />
        </mxCell>
        <mxCell id="gjkn7aUXX005Zeepqe3c-44" value="" style="group" vertex="1" connectable="0" parent="1">
          <mxGeometry x="485" y="372.5" width="80" height="75" as="geometry" />
        </mxCell>
        <mxCell id="gjkn7aUXX005Zeepqe3c-45" value="" style="shape=umlActor;verticalLabelPosition=bottom;verticalAlign=top;html=1;container=0;" vertex="1" parent="gjkn7aUXX005Zeepqe3c-44">
          <mxGeometry x="25" width="30" height="52.94117647058823" as="geometry" />
        </mxCell>
        <mxCell id="gjkn7aUXX005Zeepqe3c-46" value="&lt;div&gt;系统管理员&lt;/div&gt;" style="text;html=1;align=center;verticalAlign=middle;whiteSpace=wrap;rounded=0;container=0;" vertex="1" parent="gjkn7aUXX005Zeepqe3c-44">
          <mxGeometry y="52.94117647058823" width="80" height="22.058823529411764" as="geometry" />
        </mxCell>
        <mxCell id="gjkn7aUXX005Zeepqe3c-48" value="用户管理" style="ellipse;whiteSpace=wrap;html=1;" vertex="1" parent="1">
          <mxGeometry x="360" y="397.5" width="90" height="40" as="geometry" />
        </mxCell>
        <mxCell id="gjkn7aUXX005Zeepqe3c-49" value="&lt;div&gt;系统监控&lt;/div&gt;" style="ellipse;whiteSpace=wrap;html=1;" vertex="1" parent="1">
          <mxGeometry x="360" y="330" width="90" height="40" as="geometry" />
        </mxCell>
        <mxCell id="gjkn7aUXX005Zeepqe3c-50" value="&lt;div&gt;资源管理&lt;/div&gt;" style="ellipse;whiteSpace=wrap;html=1;" vertex="1" parent="1">
          <mxGeometry x="360" y="260" width="90" height="40" as="geometry" />
        </mxCell>
        <mxCell id="gjkn7aUXX005Zeepqe3c-51" value="&lt;div&gt;设备管理&lt;/div&gt;" style="ellipse;whiteSpace=wrap;html=1;" vertex="1" parent="1">
          <mxGeometry x="250" y="220" width="90" height="40" as="geometry" />
        </mxCell>
        <mxCell id="gjkn7aUXX005Zeepqe3c-52" value="&lt;div&gt;节点管理&lt;/div&gt;" style="ellipse;whiteSpace=wrap;html=1;" vertex="1" parent="1">
          <mxGeometry x="250" y="270" width="90" height="40" as="geometry" />
        </mxCell>
        <mxCell id="gjkn7aUXX005Zeepqe3c-53" value="&lt;div&gt;&lt;span style=&quot;background-color: transparent; color: light-dark(rgb(0, 0, 0), rgb(255, 255, 255));&quot;&gt;业务编排&lt;/span&gt;&lt;/div&gt;" style="ellipse;whiteSpace=wrap;html=1;" vertex="1" parent="1">
          <mxGeometry x="140" y="412.5" width="90" height="40" as="geometry" />
        </mxCell>
        <mxCell id="gjkn7aUXX005Zeepqe3c-55" value="" style="endArrow=classic;html=1;rounded=0;entryX=0;entryY=0.5;entryDx=0;entryDy=0;" edge="1" parent="1" target="gjkn7aUXX005Zeepqe3c-53">
          <mxGeometry width="50" height="50" relative="1" as="geometry">
            <mxPoint x="70" y="400" as="sourcePoint" />
            <mxPoint x="150" y="280" as="targetPoint" />
          </mxGeometry>
        </mxCell>
        <mxCell id="gjkn7aUXX005Zeepqe3c-56" value="" style="endArrow=classic;html=1;rounded=0;entryX=0;entryY=0.5;entryDx=0;entryDy=0;" edge="1" parent="1" target="gjkn7aUXX005Zeepqe3c-37">
          <mxGeometry width="50" height="50" relative="1" as="geometry">
            <mxPoint x="70" y="390" as="sourcePoint" />
            <mxPoint x="150" y="405" as="targetPoint" />
          </mxGeometry>
        </mxCell>
        <mxCell id="gjkn7aUXX005Zeepqe3c-58" value="&lt;div&gt;模型上传&lt;/div&gt;" style="ellipse;whiteSpace=wrap;html=1;" vertex="1" parent="1">
          <mxGeometry x="140" y="310" width="90" height="40" as="geometry" />
        </mxCell>
        <mxCell id="gjkn7aUXX005Zeepqe3c-59" value="&lt;div&gt;云边协同调度&lt;/div&gt;" style="ellipse;whiteSpace=wrap;html=1;" vertex="1" parent="1">
          <mxGeometry x="250" y="425" width="90" height="40" as="geometry" />
        </mxCell>
        <mxCell id="gjkn7aUXX005Zeepqe3c-60" value="&lt;div&gt;调度策略管理&lt;/div&gt;" style="ellipse;whiteSpace=wrap;html=1;" vertex="1" parent="1">
          <mxGeometry x="250" y="372.5" width="90" height="40" as="geometry" />
        </mxCell>
        <mxCell id="gjkn7aUXX005Zeepqe3c-61" value="" style="endArrow=classic;html=1;rounded=0;" edge="1" parent="1" source="gjkn7aUXX005Zeepqe3c-50" target="gjkn7aUXX005Zeepqe3c-51">
          <mxGeometry width="50" height="50" relative="1" as="geometry">
            <mxPoint x="529.1800000000001" y="304.84000000000003" as="sourcePoint" />
            <mxPoint x="320" y="277.5" as="targetPoint" />
          </mxGeometry>
        </mxCell>
        <mxCell id="gjkn7aUXX005Zeepqe3c-62" value="" style="endArrow=classic;html=1;rounded=0;" edge="1" parent="1" source="gjkn7aUXX005Zeepqe3c-50" target="gjkn7aUXX005Zeepqe3c-52">
          <mxGeometry width="50" height="50" relative="1" as="geometry">
            <mxPoint x="374" y="297" as="sourcePoint" />
            <mxPoint x="336" y="288" as="targetPoint" />
          </mxGeometry>
        </mxCell>
        <mxCell id="gjkn7aUXX005Zeepqe3c-64" value="" style="endArrow=classic;html=1;rounded=0;entryX=0;entryY=0.5;entryDx=0;entryDy=0;" edge="1" parent="1" target="gjkn7aUXX005Zeepqe3c-58">
          <mxGeometry width="50" height="50" relative="1" as="geometry">
            <mxPoint x="70" y="290" as="sourcePoint" />
            <mxPoint x="150" y="290" as="targetPoint" />
          </mxGeometry>
        </mxCell>
        <mxCell id="gjkn7aUXX005Zeepqe3c-65" value="" style="endArrow=classic;html=1;rounded=0;" edge="1" parent="1" target="gjkn7aUXX005Zeepqe3c-50">
          <mxGeometry width="50" height="50" relative="1" as="geometry">
            <mxPoint x="510" y="290" as="sourcePoint" />
            <mxPoint x="150" y="290" as="targetPoint" />
          </mxGeometry>
        </mxCell>
        <mxCell id="gjkn7aUXX005Zeepqe3c-66" value="" style="endArrow=classic;html=1;rounded=0;entryX=0.961;entryY=0.307;entryDx=0;entryDy=0;entryPerimeter=0;" edge="1" parent="1" target="gjkn7aUXX005Zeepqe3c-49">
          <mxGeometry width="50" height="50" relative="1" as="geometry">
            <mxPoint x="510" y="300" as="sourcePoint" />
            <mxPoint x="469" y="290" as="targetPoint" />
          </mxGeometry>
        </mxCell>
        <mxCell id="gjkn7aUXX005Zeepqe3c-68" value="" style="endArrow=classic;html=1;rounded=0;entryX=0.019;entryY=0.635;entryDx=0;entryDy=0;exitX=0.914;exitY=0.211;exitDx=0;exitDy=0;exitPerimeter=0;entryPerimeter=0;" edge="1" parent="1" source="gjkn7aUXX005Zeepqe3c-53" target="gjkn7aUXX005Zeepqe3c-60">
          <mxGeometry width="50" height="50" relative="1" as="geometry">
            <mxPoint x="80" y="300" as="sourcePoint" />
            <mxPoint x="150" y="340" as="targetPoint" />
          </mxGeometry>
        </mxCell>
        <mxCell id="gjkn7aUXX005Zeepqe3c-69" value="" style="endArrow=classic;html=1;rounded=0;exitX=0.96;exitY=0.697;exitDx=0;exitDy=0;exitPerimeter=0;" edge="1" parent="1" source="gjkn7aUXX005Zeepqe3c-53" target="gjkn7aUXX005Zeepqe3c-59">
          <mxGeometry width="50" height="50" relative="1" as="geometry">
            <mxPoint x="229" y="387" as="sourcePoint" />
            <mxPoint x="262" y="374" as="targetPoint" />
          </mxGeometry>
        </mxCell>
        <mxCell id="gjkn7aUXX005Zeepqe3c-70" value="" style="endArrow=classic;html=1;rounded=0;entryX=0.978;entryY=0.672;entryDx=0;entryDy=0;entryPerimeter=0;" edge="1" parent="1" target="gjkn7aUXX005Zeepqe3c-49">
          <mxGeometry width="50" height="50" relative="1" as="geometry">
            <mxPoint x="510" y="400" as="sourcePoint" />
            <mxPoint x="445.1399999999999" y="358.8800000000001" as="targetPoint" />
          </mxGeometry>
        </mxCell>
        <mxCell id="gjkn7aUXX005Zeepqe3c-71" value="" style="endArrow=classic;html=1;rounded=0;entryX=0.998;entryY=0.561;entryDx=0;entryDy=0;entryPerimeter=0;" edge="1" parent="1" target="gjkn7aUXX005Zeepqe3c-48">
          <mxGeometry width="50" height="50" relative="1" as="geometry">
            <mxPoint x="510" y="410" as="sourcePoint" />
            <mxPoint x="455.1399999999999" y="368.8800000000001" as="targetPoint" />
          </mxGeometry>
        </mxCell>
        <mxCell id="gjkn7aUXX005Zeepqe3c-72" value="&lt;font style=&quot;font-size: 14px;&quot;&gt;基于KubeEdge的AI推理平台&lt;/font&gt;" style="text;html=1;align=center;verticalAlign=middle;whiteSpace=wrap;rounded=0;container=0;" vertex="1" parent="1">
          <mxGeometry x="195" y="180" width="200" height="22.06" as="geometry" />
        </mxCell>
      </root>
    </mxGraphModel>
  </diagram>
</mxfile>
